<svg xmlns="http://www.w3.org/2000/svg"  viewBox="0 0 50 50" width="50px" height="50px"><path d="M 14 4 C 12.895 4 12 4.895 12 6 L 12 21 L 11.5 21 C 6.823343 21 3 24.823343 3 29.5 A 1.50015 1.50015 0 1 0 6 29.5 C 6 26.444657 8.444657 24 11.5 24 L 12 24 L 12 37 C 12 38.105 12.895 39 14 39 L 18 39 L 18 45.5 A 1.50015 1.50015 0 1 0 21 45.5 L 21 39 L 29 39 L 29 45.5 A 1.50015 1.50015 0 1 0 32 45.5 L 32 39 L 36 39 C 37.105 39 38 38.105 38 37 L 38 24 L 38.5 24 A 1.50015 1.50015 0 0 0 39.121094 23.873047 C 43.4949 23.536432 47 19.956599 47 15.5 A 1.50015 1.50015 0 0 0 45.476562 13.978516 A 1.50015 1.50015 0 0 0 44 15.5 C 44 18.555343 41.555343 21 38.5 21 L 38 21 L 38 6 C 38 4.895 37.105 4 36 4 L 14 4 z M 17 8 L 33 8 C 33.552 8 34 8.448 34 9 L 34 18 C 34 18.552 33.552 19 33 19 L 17 19 C 16.448 19 16 18.552 16 18 L 16 9 C 16 8.448 16.448 8 17 8 z M 20 11 A 1 1 0 0 0 20 13 A 1 1 0 0 0 20 11 z M 30 11 A 1 1 0 0 0 30 13 A 1 1 0 0 0 30 11 z M 23 14 C 23 15.105 23.895 16 25 16 C 26.105 16 27 15.105 27 14 L 23 14 z M 16 22 L 27 22 L 27 24 L 16 24 L 16 22 z M 32 22 C 32.552 22 33 22.448 33 23 C 33 23.552 32.552 24 32 24 C 31.448 24 31 23.552 31 23 C 31 22.448 31.448 22 32 22 z M 18 26 L 20 26 L 20 28 L 22 28 L 22 30 L 20 30 L 20 32 L 18 32 L 18 30 L 16 30 L 16 28 L 18 28 L 18 26 z M 29 26 L 31 29 L 27 29 L 29 26 z M 34 27 C 34.552 27 35 27.448 35 28 C 35 28.552 34.552 29 34 29 C 33.448 29 33 28.552 33 28 C 33 27.448 33.448 27 34 27 z M 31.5 31 C 32.881 31 34 32.119 34 33.5 C 34 34.881 32.881 36 31.5 36 C 30.119 36 29 34.881 29 33.5 C 29 32.119 30.119 31 31.5 31 z M 17 34 L 19 34 C 19.553 34 20 34.448 20 35 C 20 35.552 19.553 36 19 36 L 17 36 C 16.447 36 16 35.552 16 35 C 16 34.448 16.447 34 17 34 z M 23 34 L 25 34 C 25.553 34 26 34.448 26 35 C 26 35.552 25.553 36 25 36 L 23 36 C 22.447 36 22 35.552 22 35 C 22 34.448 22.447 34 23 34 z"/></svg>